<mxfile host="app.diagrams.net" agent="Mozilla/5.0 (Windows NT 10.0; Win64; x64; rv:137.0) Gecko/20100101 Firefox/137.0" version="26.2.12">
  <diagram name="Page-1" id="z9KPb89tAbhJvXZ32Mlq">
    <mxGraphModel dx="985" dy="518" grid="1" gridSize="10" guides="1" tooltips="1" connect="1" arrows="1" fold="1" page="1" pageScale="1" pageWidth="850" pageHeight="1100" math="0" shadow="0">
      <root>
        <mxCell id="0" />
        <mxCell id="1" parent="0" />
        <mxCell id="2al-Sy-sO0h9zrVCZjNW-2" value="STM32F103RB" style="shadow=0;dashed=0;align=center;html=1;strokeWidth=1;shape=mxgraph.electrical.logic_gates.qfp_ic;whiteSpace=wrap;labelNames=a,b,c,d,e,f,g,h,i,j,k,l,m,n,o,p,q,r,s,t,u,v,w,x,y,z,a1,b1,c1,d1,e1,f1,g1,h1,i1,j1,k1,l1,m1,n1;" vertex="1" parent="1">
          <mxGeometry x="350" y="110" width="200" height="60" as="geometry" />
        </mxCell>
        <mxCell id="2al-Sy-sO0h9zrVCZjNW-3" value="BLE" style="shadow=0;dashed=0;align=center;html=1;strokeWidth=1;shape=mxgraph.electrical.logic_gates.dual_inline_ic;labelNames=a,b,c,d,e,f,g,h,i,j,k,l,m,n,o,p,q,r,s,t;whiteSpace=wrap;" vertex="1" parent="1">
          <mxGeometry x="560" y="310" width="100" height="100" as="geometry" />
        </mxCell>
        <mxCell id="2al-Sy-sO0h9zrVCZjNW-4" value="&lt;div&gt;9DOF IMU&lt;/div&gt;" style="shadow=0;dashed=0;align=center;html=1;strokeWidth=1;shape=mxgraph.electrical.logic_gates.dual_inline_ic;labelNames=a,b,c,d,e,f,g,h,i,j,k,l,m,n,o,p,q,r,s,t;whiteSpace=wrap;" vertex="1" parent="1">
          <mxGeometry x="290" y="310" width="130" height="100" as="geometry" />
        </mxCell>
        <mxCell id="2al-Sy-sO0h9zrVCZjNW-6" value="" style="endArrow=none;html=1;rounded=0;entryX=0;entryY=1;entryDx=30;entryDy=0;entryPerimeter=0;exitX=1;exitY=0;exitDx=0;exitDy=30;exitPerimeter=0;" edge="1" parent="1" source="2al-Sy-sO0h9zrVCZjNW-3" target="2al-Sy-sO0h9zrVCZjNW-2">
          <mxGeometry width="50" height="50" relative="1" as="geometry">
            <mxPoint x="500" y="340" as="sourcePoint" />
            <mxPoint x="360" y="190" as="targetPoint" />
            <Array as="points">
              <mxPoint x="710" y="340" />
              <mxPoint x="710" y="240" />
              <mxPoint x="460" y="240" />
              <mxPoint x="380" y="240" />
            </Array>
          </mxGeometry>
        </mxCell>
        <mxCell id="2al-Sy-sO0h9zrVCZjNW-7" value="" style="pointerEvents=1;verticalLabelPosition=bottom;shadow=0;dashed=0;align=center;html=1;verticalAlign=top;shape=mxgraph.electrical.signal_sources.signal_ground;" vertex="1" parent="1">
          <mxGeometry x="700" y="360" width="15" height="10" as="geometry" />
        </mxCell>
        <mxCell id="2al-Sy-sO0h9zrVCZjNW-9" value="" style="endArrow=none;html=1;rounded=0;exitX=1;exitY=0;exitDx=0;exitDy=50;exitPerimeter=0;entryX=0.5;entryY=0;entryDx=0;entryDy=0;entryPerimeter=0;" edge="1" parent="1" source="2al-Sy-sO0h9zrVCZjNW-3" target="2al-Sy-sO0h9zrVCZjNW-7">
          <mxGeometry width="50" height="50" relative="1" as="geometry">
            <mxPoint x="460" y="510" as="sourcePoint" />
            <mxPoint x="710" y="420" as="targetPoint" />
            <Array as="points" />
          </mxGeometry>
        </mxCell>
        <mxCell id="2al-Sy-sO0h9zrVCZjNW-10" value="&lt;font style=&quot;font-size: 8px;&quot;&gt;VIN&lt;/font&gt;" style="text;html=1;align=center;verticalAlign=middle;whiteSpace=wrap;rounded=0;" vertex="1" parent="1">
          <mxGeometry x="630" y="320" width="60" height="30" as="geometry" />
        </mxCell>
        <mxCell id="2al-Sy-sO0h9zrVCZjNW-13" value="&lt;font style=&quot;font-size: 8px;&quot;&gt;GND&lt;/font&gt;" style="text;html=1;align=center;verticalAlign=middle;whiteSpace=wrap;rounded=0;" vertex="1" parent="1">
          <mxGeometry x="630" y="340" width="60" height="30" as="geometry" />
        </mxCell>
        <mxCell id="2al-Sy-sO0h9zrVCZjNW-15" value="" style="endArrow=none;html=1;rounded=0;entryX=0;entryY=1;entryDx=90;entryDy=0;entryPerimeter=0;exitX=0;exitY=0;exitDx=0;exitDy=10;exitPerimeter=0;" edge="1" parent="1" source="2al-Sy-sO0h9zrVCZjNW-3" target="2al-Sy-sO0h9zrVCZjNW-2">
          <mxGeometry width="50" height="50" relative="1" as="geometry">
            <mxPoint x="440" y="250" as="sourcePoint" />
            <mxPoint x="520" y="270" as="targetPoint" />
            <Array as="points">
              <mxPoint x="520" y="320" />
              <mxPoint x="520" y="250" />
              <mxPoint x="440" y="250" />
            </Array>
          </mxGeometry>
        </mxCell>
        <mxCell id="2al-Sy-sO0h9zrVCZjNW-16" value="" style="endArrow=none;html=1;rounded=0;entryX=0;entryY=1;entryDx=110;entryDy=0;entryPerimeter=0;exitX=0;exitY=0;exitDx=0;exitDy=30;exitPerimeter=0;" edge="1" parent="1" source="2al-Sy-sO0h9zrVCZjNW-3" target="2al-Sy-sO0h9zrVCZjNW-2">
          <mxGeometry width="50" height="50" relative="1" as="geometry">
            <mxPoint x="470" y="400" as="sourcePoint" />
            <mxPoint x="470" y="190" as="targetPoint" />
            <Array as="points">
              <mxPoint x="510" y="340" />
              <mxPoint x="510" y="260" />
              <mxPoint x="460" y="260" />
            </Array>
          </mxGeometry>
        </mxCell>
        <mxCell id="2al-Sy-sO0h9zrVCZjNW-17" value="" style="endArrow=none;html=1;rounded=0;entryX=0;entryY=1;entryDx=130;entryDy=0;entryPerimeter=0;exitX=0;exitY=0;exitDx=0;exitDy=50;exitPerimeter=0;" edge="1" parent="1" source="2al-Sy-sO0h9zrVCZjNW-3" target="2al-Sy-sO0h9zrVCZjNW-2">
          <mxGeometry width="50" height="50" relative="1" as="geometry">
            <mxPoint x="480" y="470" as="sourcePoint" />
            <mxPoint x="530" y="420" as="targetPoint" />
            <Array as="points">
              <mxPoint x="500" y="360" />
              <mxPoint x="500" y="270" />
              <mxPoint x="480" y="270" />
            </Array>
          </mxGeometry>
        </mxCell>
        <mxCell id="2al-Sy-sO0h9zrVCZjNW-18" value="" style="endArrow=none;html=1;rounded=0;entryX=0;entryY=1;entryDx=150;entryDy=0;entryPerimeter=0;exitX=0;exitY=0;exitDx=0;exitDy=70;exitPerimeter=0;" edge="1" parent="1" source="2al-Sy-sO0h9zrVCZjNW-3" target="2al-Sy-sO0h9zrVCZjNW-2">
          <mxGeometry width="50" height="50" relative="1" as="geometry">
            <mxPoint x="470" y="450" as="sourcePoint" />
            <mxPoint x="520" y="400" as="targetPoint" />
            <Array as="points">
              <mxPoint x="530" y="380" />
              <mxPoint x="530" y="230" />
              <mxPoint x="500" y="230" />
            </Array>
          </mxGeometry>
        </mxCell>
        <mxCell id="2al-Sy-sO0h9zrVCZjNW-19" value="" style="endArrow=none;html=1;rounded=0;entryX=0;entryY=1;entryDx=170;entryDy=0;entryPerimeter=0;exitX=0;exitY=0;exitDx=0;exitDy=90;exitPerimeter=0;" edge="1" parent="1" source="2al-Sy-sO0h9zrVCZjNW-3" target="2al-Sy-sO0h9zrVCZjNW-2">
          <mxGeometry width="50" height="50" relative="1" as="geometry">
            <mxPoint x="530" y="480" as="sourcePoint" />
            <mxPoint x="580" y="430" as="targetPoint" />
            <Array as="points">
              <mxPoint x="540" y="400" />
              <mxPoint x="540" y="220" />
              <mxPoint x="520" y="220" />
            </Array>
          </mxGeometry>
        </mxCell>
        <mxCell id="2al-Sy-sO0h9zrVCZjNW-20" value="" style="endArrow=none;html=1;rounded=0;exitX=1;exitY=0;exitDx=0;exitDy=70;exitPerimeter=0;entryX=1;entryY=0;entryDx=0;entryDy=30;entryPerimeter=0;" edge="1" parent="1" source="2al-Sy-sO0h9zrVCZjNW-3" target="2al-Sy-sO0h9zrVCZjNW-2">
          <mxGeometry width="50" height="50" relative="1" as="geometry">
            <mxPoint x="710" y="440" as="sourcePoint" />
            <mxPoint x="760" y="390" as="targetPoint" />
            <Array as="points">
              <mxPoint x="750" y="380" />
              <mxPoint x="750" y="140" />
            </Array>
          </mxGeometry>
        </mxCell>
        <mxCell id="2al-Sy-sO0h9zrVCZjNW-21" value="&lt;font style=&quot;font-size: 8px;&quot;&gt;RST&lt;/font&gt;" style="text;html=1;align=center;verticalAlign=middle;whiteSpace=wrap;rounded=0;" vertex="1" parent="1">
          <mxGeometry x="630" y="360" width="60" height="30" as="geometry" />
        </mxCell>
        <mxCell id="2al-Sy-sO0h9zrVCZjNW-22" value="&lt;font style=&quot;font-size: 8px;&quot;&gt;SCK&lt;/font&gt;" style="text;html=1;align=center;verticalAlign=middle;whiteSpace=wrap;rounded=0;" vertex="1" parent="1">
          <mxGeometry x="530" y="300" width="60" height="30" as="geometry" />
        </mxCell>
        <mxCell id="2al-Sy-sO0h9zrVCZjNW-23" value="&lt;font style=&quot;font-size: 8px;&quot;&gt;MISO&lt;/font&gt;" style="text;html=1;align=center;verticalAlign=middle;whiteSpace=wrap;rounded=0;" vertex="1" parent="1">
          <mxGeometry x="530" y="320" width="60" height="30" as="geometry" />
        </mxCell>
        <mxCell id="2al-Sy-sO0h9zrVCZjNW-24" value="&lt;font style=&quot;font-size: 8px;&quot;&gt;MOSI&lt;/font&gt;" style="text;html=1;align=center;verticalAlign=middle;whiteSpace=wrap;rounded=0;" vertex="1" parent="1">
          <mxGeometry x="530" y="340" width="60" height="30" as="geometry" />
        </mxCell>
        <mxCell id="2al-Sy-sO0h9zrVCZjNW-25" value="&lt;font style=&quot;font-size: 8px;&quot;&gt;CS&lt;/font&gt;" style="text;html=1;align=center;verticalAlign=middle;whiteSpace=wrap;rounded=0;" vertex="1" parent="1">
          <mxGeometry x="530" y="360" width="60" height="30" as="geometry" />
        </mxCell>
        <mxCell id="2al-Sy-sO0h9zrVCZjNW-26" value="&lt;font style=&quot;font-size: 8px;&quot;&gt;IRQ&lt;/font&gt;" style="text;html=1;align=center;verticalAlign=middle;whiteSpace=wrap;rounded=0;" vertex="1" parent="1">
          <mxGeometry x="530" y="380" width="60" height="30" as="geometry" />
        </mxCell>
        <mxCell id="2al-Sy-sO0h9zrVCZjNW-27" value="" style="endArrow=none;html=1;rounded=0;exitX=0;exitY=0;exitDx=0;exitDy=10;exitPerimeter=0;" edge="1" parent="1" source="2al-Sy-sO0h9zrVCZjNW-4" target="2al-Sy-sO0h9zrVCZjNW-28">
          <mxGeometry width="50" height="50" relative="1" as="geometry">
            <mxPoint x="280" y="290" as="sourcePoint" />
            <mxPoint x="380" y="240" as="targetPoint" />
            <Array as="points">
              <mxPoint x="260" y="320" />
              <mxPoint x="260" y="240" />
            </Array>
          </mxGeometry>
        </mxCell>
        <mxCell id="2al-Sy-sO0h9zrVCZjNW-28" value="" style="shape=waypoint;sketch=0;fillStyle=solid;size=6;pointerEvents=1;points=[];fillColor=none;resizable=0;rotatable=0;perimeter=centerPerimeter;snapToPoint=1;" vertex="1" parent="1">
          <mxGeometry x="370" y="230" width="20" height="20" as="geometry" />
        </mxCell>
        <mxCell id="2al-Sy-sO0h9zrVCZjNW-29" value="" style="endArrow=none;html=1;rounded=0;exitX=0.5;exitY=0;exitDx=0;exitDy=0;exitPerimeter=0;" edge="1" parent="1" source="2al-Sy-sO0h9zrVCZjNW-30">
          <mxGeometry width="50" height="50" relative="1" as="geometry">
            <mxPoint x="200" y="360" as="sourcePoint" />
            <mxPoint x="290" y="360" as="targetPoint" />
          </mxGeometry>
        </mxCell>
        <mxCell id="2al-Sy-sO0h9zrVCZjNW-30" value="" style="pointerEvents=1;verticalLabelPosition=bottom;shadow=0;dashed=0;align=center;html=1;verticalAlign=top;shape=mxgraph.electrical.signal_sources.signal_ground;" vertex="1" parent="1">
          <mxGeometry x="200" y="360" width="15" height="10" as="geometry" />
        </mxCell>
        <mxCell id="2al-Sy-sO0h9zrVCZjNW-31" value="" style="endArrow=none;html=1;rounded=0;entryX=0;entryY=1;entryDx=50;entryDy=0;entryPerimeter=0;exitX=0;exitY=0;exitDx=0;exitDy=70;exitPerimeter=0;" edge="1" parent="1" source="2al-Sy-sO0h9zrVCZjNW-4" target="2al-Sy-sO0h9zrVCZjNW-2">
          <mxGeometry width="50" height="50" relative="1" as="geometry">
            <mxPoint x="290" y="300" as="sourcePoint" />
            <mxPoint x="340" y="250" as="targetPoint" />
            <Array as="points">
              <mxPoint x="250" y="380" />
              <mxPoint x="250" y="270" />
              <mxPoint x="400" y="270" />
            </Array>
          </mxGeometry>
        </mxCell>
        <mxCell id="2al-Sy-sO0h9zrVCZjNW-32" value="" style="endArrow=none;html=1;rounded=0;entryX=0;entryY=1;entryDx=70;entryDy=0;entryPerimeter=0;exitX=0;exitY=0;exitDx=0;exitDy=90;exitPerimeter=0;" edge="1" parent="1" source="2al-Sy-sO0h9zrVCZjNW-4" target="2al-Sy-sO0h9zrVCZjNW-2">
          <mxGeometry width="50" height="50" relative="1" as="geometry">
            <mxPoint x="130" y="470" as="sourcePoint" />
            <mxPoint x="180" y="420" as="targetPoint" />
            <Array as="points">
              <mxPoint x="240" y="400" />
              <mxPoint x="240" y="280" />
              <mxPoint x="420" y="280" />
            </Array>
          </mxGeometry>
        </mxCell>
        <mxCell id="2al-Sy-sO0h9zrVCZjNW-33" value="&lt;font style=&quot;font-size: 8px;&quot;&gt;VIN&lt;/font&gt;" style="text;html=1;align=center;verticalAlign=middle;whiteSpace=wrap;rounded=0;" vertex="1" parent="1">
          <mxGeometry x="260" y="300" width="60" height="30" as="geometry" />
        </mxCell>
        <mxCell id="2al-Sy-sO0h9zrVCZjNW-34" value="&lt;font style=&quot;font-size: 8px;&quot;&gt;GND&lt;/font&gt;" style="text;html=1;align=center;verticalAlign=middle;whiteSpace=wrap;rounded=0;" vertex="1" parent="1">
          <mxGeometry x="260" y="340" width="60" height="30" as="geometry" />
        </mxCell>
        <mxCell id="2al-Sy-sO0h9zrVCZjNW-35" value="&lt;font style=&quot;font-size: 8px;&quot;&gt;SCL&lt;/font&gt;" style="text;html=1;align=center;verticalAlign=middle;whiteSpace=wrap;rounded=0;" vertex="1" parent="1">
          <mxGeometry x="260" y="360" width="60" height="30" as="geometry" />
        </mxCell>
        <mxCell id="2al-Sy-sO0h9zrVCZjNW-36" value="&lt;font style=&quot;font-size: 8px;&quot;&gt;SDA&lt;/font&gt;" style="text;html=1;align=center;verticalAlign=middle;whiteSpace=wrap;rounded=0;" vertex="1" parent="1">
          <mxGeometry x="260" y="380" width="60" height="30" as="geometry" />
        </mxCell>
        <mxCell id="2al-Sy-sO0h9zrVCZjNW-37" value="*Ignore numbers on chips (use named labels beside)" style="text;html=1;align=center;verticalAlign=middle;whiteSpace=wrap;rounded=0;" vertex="1" parent="1">
          <mxGeometry x="210" y="70" width="290" height="30" as="geometry" />
        </mxCell>
        <mxCell id="2al-Sy-sO0h9zrVCZjNW-38" value="&lt;font style=&quot;font-size: 8px;&quot;&gt;3V3&lt;/font&gt;" style="text;html=1;align=center;verticalAlign=middle;whiteSpace=wrap;rounded=0;" vertex="1" parent="1">
          <mxGeometry x="340" y="150" width="60" height="30" as="geometry" />
        </mxCell>
        <mxCell id="2al-Sy-sO0h9zrVCZjNW-39" value="&lt;font style=&quot;font-size: 8px;&quot;&gt;GND&lt;/font&gt;" style="text;html=1;align=center;verticalAlign=middle;whiteSpace=wrap;rounded=0;" vertex="1" parent="1">
          <mxGeometry x="320" y="120" width="60" height="30" as="geometry" />
        </mxCell>
        <mxCell id="2al-Sy-sO0h9zrVCZjNW-40" value="" style="pointerEvents=1;verticalLabelPosition=bottom;shadow=0;dashed=0;align=center;html=1;verticalAlign=top;shape=mxgraph.electrical.signal_sources.signal_ground;" vertex="1" parent="1">
          <mxGeometry x="325" y="140" width="15" height="10" as="geometry" />
        </mxCell>
        <mxCell id="2al-Sy-sO0h9zrVCZjNW-41" value="" style="endArrow=none;html=1;rounded=0;entryX=0;entryY=0;entryDx=0;entryDy=30;entryPerimeter=0;exitX=0.5;exitY=0;exitDx=0;exitDy=0;exitPerimeter=0;" edge="1" parent="1" source="2al-Sy-sO0h9zrVCZjNW-40" target="2al-Sy-sO0h9zrVCZjNW-2">
          <mxGeometry width="50" height="50" relative="1" as="geometry">
            <mxPoint x="290" y="220" as="sourcePoint" />
            <mxPoint x="340" y="170" as="targetPoint" />
          </mxGeometry>
        </mxCell>
        <mxCell id="2al-Sy-sO0h9zrVCZjNW-42" value="&lt;font style=&quot;font-size: 8px;&quot;&gt;PB8&lt;/font&gt;" style="text;html=1;align=center;verticalAlign=middle;whiteSpace=wrap;rounded=0;" vertex="1" parent="1">
          <mxGeometry x="360" y="150" width="60" height="30" as="geometry" />
        </mxCell>
        <mxCell id="2al-Sy-sO0h9zrVCZjNW-43" value="&lt;font style=&quot;font-size: 8px;&quot;&gt;PB9&lt;/font&gt;" style="text;html=1;align=center;verticalAlign=middle;whiteSpace=wrap;rounded=0;" vertex="1" parent="1">
          <mxGeometry x="380" y="150" width="60" height="30" as="geometry" />
        </mxCell>
        <mxCell id="2al-Sy-sO0h9zrVCZjNW-45" value="&lt;font style=&quot;font-size: 8px;&quot;&gt;PB13&lt;/font&gt;" style="text;html=1;align=center;verticalAlign=middle;whiteSpace=wrap;rounded=0;" vertex="1" parent="1">
          <mxGeometry x="400" y="150" width="60" height="30" as="geometry" />
        </mxCell>
        <mxCell id="2al-Sy-sO0h9zrVCZjNW-46" value="&lt;font style=&quot;font-size: 8px;&quot;&gt;PB14&lt;/font&gt;" style="text;html=1;align=center;verticalAlign=middle;whiteSpace=wrap;rounded=0;" vertex="1" parent="1">
          <mxGeometry x="420" y="150" width="60" height="30" as="geometry" />
        </mxCell>
        <mxCell id="2al-Sy-sO0h9zrVCZjNW-47" value="&lt;font style=&quot;font-size: 8px;&quot;&gt;PB15&lt;/font&gt;" style="text;html=1;align=center;verticalAlign=middle;whiteSpace=wrap;rounded=0;" vertex="1" parent="1">
          <mxGeometry x="440" y="150" width="60" height="30" as="geometry" />
        </mxCell>
        <mxCell id="2al-Sy-sO0h9zrVCZjNW-48" value="&lt;div&gt;&lt;font style=&quot;font-size: 8px;&quot;&gt;PC2&lt;/font&gt;&lt;/div&gt;" style="text;html=1;align=center;verticalAlign=middle;whiteSpace=wrap;rounded=0;" vertex="1" parent="1">
          <mxGeometry x="460" y="150" width="60" height="30" as="geometry" />
        </mxCell>
        <mxCell id="2al-Sy-sO0h9zrVCZjNW-49" value="&lt;div&gt;&lt;font style=&quot;font-size: 8px;&quot;&gt;PC3&lt;/font&gt;&lt;/div&gt;" style="text;html=1;align=center;verticalAlign=middle;whiteSpace=wrap;rounded=0;" vertex="1" parent="1">
          <mxGeometry x="480" y="150" width="60" height="30" as="geometry" />
        </mxCell>
        <mxCell id="2al-Sy-sO0h9zrVCZjNW-50" value="&lt;div&gt;&lt;font style=&quot;font-size: 8px;&quot;&gt;PC0&lt;/font&gt;&lt;/div&gt;" style="text;html=1;align=center;verticalAlign=middle;whiteSpace=wrap;rounded=0;" vertex="1" parent="1">
          <mxGeometry x="520" y="120" width="60" height="30" as="geometry" />
        </mxCell>
      </root>
    </mxGraphModel>
  </diagram>
</mxfile>
